<mxfile host="app.diagrams.net" modified="2023-09-12T19:53:31.406Z" agent="Mozilla/5.0 (Windows NT 10.0; Win64; x64) AppleWebKit/537.36 (KHTML, like Gecko) Chrome/116.0.0.0 Safari/537.36" etag="KhVUyZVconSM8bi5iLi4" version="21.7.2" type="device">
  <diagram name="Página-1" id="ikfoFKZXES0dp9iZwlLp">
    <mxGraphModel dx="880" dy="470" grid="1" gridSize="10" guides="1" tooltips="1" connect="1" arrows="1" fold="1" page="1" pageScale="1" pageWidth="827" pageHeight="1169" math="0" shadow="0">
      <root>
        <mxCell id="0" />
        <mxCell id="1" parent="0" />
        <mxCell id="udLIp9gKeXr8ZRfYpmwX-1" value="" style="ellipse;html=1;shape=startState;fillColor=#000000;strokeColor=#ff0000;" vertex="1" parent="1">
          <mxGeometry x="50" y="50" width="30" height="30" as="geometry" />
        </mxCell>
        <mxCell id="udLIp9gKeXr8ZRfYpmwX-2" value="" style="edgeStyle=orthogonalEdgeStyle;html=1;verticalAlign=bottom;endArrow=open;endSize=8;strokeColor=#ff0000;rounded=0;entryX=0.083;entryY=0.75;entryDx=0;entryDy=0;entryPerimeter=0;" edge="1" source="udLIp9gKeXr8ZRfYpmwX-1" parent="1" target="udLIp9gKeXr8ZRfYpmwX-3">
          <mxGeometry relative="1" as="geometry">
            <mxPoint x="65" y="140" as="targetPoint" />
            <Array as="points">
              <mxPoint x="190" y="65" />
            </Array>
          </mxGeometry>
        </mxCell>
        <mxCell id="udLIp9gKeXr8ZRfYpmwX-7" style="edgeStyle=orthogonalEdgeStyle;rounded=0;orthogonalLoop=1;jettySize=auto;html=1;" edge="1" parent="1" source="udLIp9gKeXr8ZRfYpmwX-3" target="udLIp9gKeXr8ZRfYpmwX-5">
          <mxGeometry relative="1" as="geometry" />
        </mxCell>
        <mxCell id="udLIp9gKeXr8ZRfYpmwX-3" value="Selecionar área de devolução" style="rounded=1;whiteSpace=wrap;html=1;arcSize=40;fontColor=#000000;fillColor=#ffffc0;strokeColor=#ff0000;" vertex="1" parent="1">
          <mxGeometry x="180" y="40" width="120" height="40" as="geometry" />
        </mxCell>
        <mxCell id="udLIp9gKeXr8ZRfYpmwX-12" style="edgeStyle=orthogonalEdgeStyle;rounded=0;orthogonalLoop=1;jettySize=auto;html=1;entryX=0.5;entryY=0;entryDx=0;entryDy=0;" edge="1" parent="1" source="udLIp9gKeXr8ZRfYpmwX-5" target="udLIp9gKeXr8ZRfYpmwX-8">
          <mxGeometry relative="1" as="geometry" />
        </mxCell>
        <mxCell id="udLIp9gKeXr8ZRfYpmwX-5" value="selecionar livro" style="rounded=1;whiteSpace=wrap;html=1;arcSize=40;fontColor=#000000;fillColor=#ffffc0;strokeColor=#ff0000;" vertex="1" parent="1">
          <mxGeometry x="390" y="40" width="120" height="40" as="geometry" />
        </mxCell>
        <mxCell id="udLIp9gKeXr8ZRfYpmwX-8" value="Livro existe?" style="rhombus;whiteSpace=wrap;html=1;fontColor=#000000;fillColor=#ffffc0;strokeColor=#ff0000;" vertex="1" parent="1">
          <mxGeometry x="405" y="150" width="90" height="50" as="geometry" />
        </mxCell>
        <mxCell id="udLIp9gKeXr8ZRfYpmwX-9" value="no" style="edgeStyle=orthogonalEdgeStyle;html=1;align=left;verticalAlign=bottom;endArrow=open;endSize=8;strokeColor=#ff0000;rounded=0;" edge="1" source="udLIp9gKeXr8ZRfYpmwX-8" parent="1" target="udLIp9gKeXr8ZRfYpmwX-13">
          <mxGeometry x="-1" relative="1" as="geometry">
            <mxPoint x="580" y="170" as="targetPoint" />
            <Array as="points">
              <mxPoint x="550" y="175" />
              <mxPoint x="550" y="175" />
            </Array>
          </mxGeometry>
        </mxCell>
        <mxCell id="udLIp9gKeXr8ZRfYpmwX-10" value="yes" style="edgeStyle=orthogonalEdgeStyle;html=1;align=left;verticalAlign=top;endArrow=open;endSize=8;strokeColor=#ff0000;rounded=0;" edge="1" source="udLIp9gKeXr8ZRfYpmwX-8" parent="1" target="udLIp9gKeXr8ZRfYpmwX-15">
          <mxGeometry x="-1" relative="1" as="geometry">
            <mxPoint x="310" y="210" as="targetPoint" />
          </mxGeometry>
        </mxCell>
        <mxCell id="udLIp9gKeXr8ZRfYpmwX-21" style="edgeStyle=orthogonalEdgeStyle;rounded=0;orthogonalLoop=1;jettySize=auto;html=1;" edge="1" parent="1" source="udLIp9gKeXr8ZRfYpmwX-13" target="udLIp9gKeXr8ZRfYpmwX-20">
          <mxGeometry relative="1" as="geometry">
            <Array as="points">
              <mxPoint x="650" y="305" />
            </Array>
          </mxGeometry>
        </mxCell>
        <mxCell id="udLIp9gKeXr8ZRfYpmwX-13" value="Mensagem de erro" style="rounded=1;whiteSpace=wrap;html=1;arcSize=40;fontColor=#000000;fillColor=#ffffc0;strokeColor=#ff0000;" vertex="1" parent="1">
          <mxGeometry x="590" y="160" width="120" height="40" as="geometry" />
        </mxCell>
        <mxCell id="udLIp9gKeXr8ZRfYpmwX-19" style="edgeStyle=orthogonalEdgeStyle;rounded=0;orthogonalLoop=1;jettySize=auto;html=1;" edge="1" parent="1" source="udLIp9gKeXr8ZRfYpmwX-15" target="udLIp9gKeXr8ZRfYpmwX-17">
          <mxGeometry relative="1" as="geometry" />
        </mxCell>
        <mxCell id="udLIp9gKeXr8ZRfYpmwX-15" value="Registrar devolução" style="rounded=1;whiteSpace=wrap;html=1;arcSize=40;fontColor=#000000;fillColor=#ffffc0;strokeColor=#ff0000;" vertex="1" parent="1">
          <mxGeometry x="140" y="155" width="120" height="40" as="geometry" />
        </mxCell>
        <mxCell id="udLIp9gKeXr8ZRfYpmwX-17" value="Registrar no histórico&amp;nbsp;" style="rounded=1;whiteSpace=wrap;html=1;arcSize=40;fontColor=#000000;fillColor=#ffffc0;strokeColor=#ff0000;" vertex="1" parent="1">
          <mxGeometry x="140" y="285" width="120" height="40" as="geometry" />
        </mxCell>
        <mxCell id="udLIp9gKeXr8ZRfYpmwX-18" value="" style="edgeStyle=orthogonalEdgeStyle;html=1;verticalAlign=bottom;endArrow=open;endSize=8;strokeColor=#ff0000;rounded=0;entryX=0;entryY=0.5;entryDx=0;entryDy=0;" edge="1" source="udLIp9gKeXr8ZRfYpmwX-17" parent="1" target="udLIp9gKeXr8ZRfYpmwX-20">
          <mxGeometry relative="1" as="geometry">
            <mxPoint x="240" y="370" as="targetPoint" />
          </mxGeometry>
        </mxCell>
        <mxCell id="udLIp9gKeXr8ZRfYpmwX-20" value="" style="ellipse;html=1;shape=endState;fillColor=#000000;strokeColor=#ff0000;" vertex="1" parent="1">
          <mxGeometry x="435" y="290" width="30" height="30" as="geometry" />
        </mxCell>
      </root>
    </mxGraphModel>
  </diagram>
</mxfile>
